<svg width="104" height="48" viewBox="0 0 104 48" fill="none" xmlns="http://www.w3.org/2000/svg" class="mx-auto text-white mb-6"><path fill-rule="evenodd" clip-rule="evenodd" d="M51.8247 15.9814C50.9158 15.647 50.1428 15.1706 49.5057 14.5437C48.8686 13.9168 48.3844 13.1562 48.0277 12.2786C47.6794 11.3842 47.5095 10.3728 47.5095 9.25281C47.5095 7.84859 47.7134 6.56975 48.1211 5.433C48.5373 4.29625 49.1234 3.31831 49.9049 2.5159C50.6864 1.70513 51.6378 1.0866 52.7591 0.65196C53.8888 0.21732 55.1715 0 56.6155 0C57.7538 0 58.7731 0.158811 59.682 0.484791C60.5909 0.81077 61.3724 1.2872 62.0265 1.92245C62.6806 2.54933 63.1732 3.33502 63.5215 4.27953C63.8698 5.21568 64.0397 6.30228 64.0397 7.53933C64.0397 8.9937 63.7933 10.2809 63.3176 11.3926C62.842 12.5126 62.1879 13.4404 61.3639 14.1927C60.54 14.9449 59.5631 15.5133 58.4503 15.8978C57.3291 16.2906 56.1398 16.4829 54.8657 16.4829C53.7529 16.4829 52.7336 16.3157 51.8247 15.9814ZM12.6058 11.844L11.425 15.9981H0.535152C0.407735 15.7641 0.390747 15.5217 0.467197 15.2877C0.543647 15.0453 0.747513 14.8781 1.08729 14.7862L2.07265 14.502V1.80548L0.535152 1.66339C0.484185 1.55473 0.467197 1.421 0.484185 1.27054C0.501174 1.12009 0.552141 0.977998 0.637085 0.844262C0.72203 0.710527 0.849446 0.593509 1.01934 0.509924C1.18922 0.417981 1.39309 0.376189 1.63094 0.376189H8.63885C8.73229 0.69381 8.70681 0.977998 8.5624 1.22039C8.418 1.47115 8.20563 1.60488 7.91682 1.63832L6.26041 1.83056V14.0506L9.87055 14.2178L10.7795 12.3873C11.0088 11.9777 11.2806 11.727 11.6119 11.6434C11.9347 11.5598 12.266 11.6183 12.6058 11.844ZM75.2946 14.9701L68.6265 4.58891V14.5522L70.7161 14.8364C70.6991 15.0621 70.6397 15.2543 70.5462 15.4298C70.4528 15.5886 70.3084 15.7307 70.1045 15.8477C69.9091 15.9648 69.6118 16.0149 69.2296 15.9982C68.8381 15.9828 68.49 15.9745 68.1652 15.9667L68.0828 15.9648C67.9108 15.9648 67.7366 15.9627 67.5604 15.9607C67.38 15.9585 67.1973 15.9564 67.0125 15.9564H65.8828C65.5005 15.9564 65.0928 15.9731 64.6596 16.0066C64.5406 15.831 64.5237 15.6137 64.5831 15.3546C64.6426 15.0955 64.8295 14.92 65.1353 14.8447L66.2395 14.5355V1.80554L64.6256 1.66345C64.5152 1.37926 64.5406 1.09507 64.7105 0.810883C64.8804 0.526696 65.2032 0.384602 65.6874 0.384602H70.6906L77.2568 10.5234V1.78046L75.6684 1.63837C75.5919 1.33747 75.6429 1.05328 75.8383 0.785808C76.0336 0.518337 76.3309 0.384602 76.7302 0.384602H81.3851C81.4786 0.702223 81.4786 0.969694 81.3851 1.19537C81.2917 1.41269 81.0623 1.56314 80.7141 1.62165L79.6353 1.78882V15.831C79.1681 16.0316 78.7434 16.1654 78.3696 16.2322C77.9874 16.2907 77.6221 16.3242 77.2738 16.3242C76.8576 16.3242 76.5008 16.2239 76.212 16.0066C75.9232 15.7892 75.6174 15.4465 75.2946 14.9701ZM100.583 7.97407C100.583 7.78267 100.335 7.78742 100.068 7.79256C99.9147 7.7955 99.7551 7.79857 99.6314 7.76511C99.2916 7.67317 99.1727 7.58123 99.1727 7.58123C99.1727 7.58123 99.1642 8.04094 98.9009 8.24154C98.6291 8.45051 98.4507 8.45051 98.4507 8.45051C98.4507 8.45051 98.4422 8.84335 99.5465 10.3395C100.651 11.8357 101.653 11.9861 101.653 11.6852C101.653 11.5569 101.523 11.2901 101.359 10.9531L101.359 10.9528L101.359 10.9527L101.359 10.9527C101.138 10.4997 100.856 9.91975 100.744 9.37829C100.625 8.84335 100.583 8.27498 100.583 7.97407ZM36.5176 20.9128C36.8149 20.8543 37.0358 20.754 37.1802 20.6036C37.3161 20.4531 37.3925 20.2692 37.401 20.0519C37.4095 19.8346 37.3671 19.5755 37.2651 19.2829H32.1854C31.6673 19.2829 31.3275 19.4083 31.1491 19.6591C30.9707 19.9098 30.9368 20.2274 31.0387 20.6036L33.1283 20.8209L30.3591 29.7728L26.9529 19.0907L24.0138 19.4585L20.7519 29.731L17.9912 20.6286L18.9086 20.4782C19.2399 20.428 19.4778 20.3027 19.6222 20.1021C19.7666 19.9014 19.7496 19.6256 19.5882 19.2829H13.6081C13.1409 19.2829 12.8096 19.4167 12.6143 19.6841C12.4104 19.9516 12.4104 20.2692 12.5888 20.6286L13.71 20.7039L18.2461 35.8577C19.138 35.8577 19.9025 35.6404 20.5226 35.1974C21.1427 34.7544 21.6354 34.0022 22.0006 32.9239L24.6169 25.393L28.1251 35.8577C28.5753 35.8577 28.9661 35.816 29.2973 35.724C29.6286 35.6321 29.9259 35.4816 30.1808 35.2727C30.4356 35.0637 30.6649 34.7795 30.8688 34.4201C31.0642 34.0607 31.2511 33.6177 31.4125 33.0995L35.3029 20.9463C35.8126 20.9797 36.2203 20.9713 36.5176 20.9128ZM11.3656 27.9756C11.0852 27.5744 10.703 27.1983 10.2358 26.8389C9.76012 26.4794 9.1655 26.1367 8.45197 25.8108L6.68513 25.0501C5.90364 24.7242 5.38548 24.3898 5.13914 24.0388C4.8928 23.6877 4.76538 23.2782 4.76538 22.8017C4.76538 22.5593 4.80785 22.3086 4.90129 22.0662C4.99473 21.8238 5.13064 21.5981 5.32602 21.4059C5.51289 21.2136 5.75923 21.0548 6.05654 20.9294C6.35384 20.8041 6.7191 20.7455 7.15232 20.7455C7.56855 20.7455 7.96779 20.7957 8.35004 20.896C8.73229 20.9963 9.04658 21.13 9.29292 21.3139L9.1655 23.7546C9.71764 23.9803 10.1509 24.0137 10.4736 23.8382C10.7964 23.6626 11.0088 23.3199 11.1107 22.8017L11.7053 19.8178C11.1532 19.5419 10.5331 19.3162 9.82807 19.1491C9.12303 18.9819 8.36703 18.89 7.57704 18.89C6.44728 18.89 5.47042 19.0153 4.65495 19.2661C3.83099 19.5168 3.15144 19.8763 2.60779 20.3443C2.06415 20.8124 1.66491 21.3641 1.40158 22.0077C1.13826 22.6513 1.00234 23.3534 1.00234 24.1224C1.00234 24.4985 1.04482 24.8746 1.12976 25.2508C1.21471 25.6269 1.35911 25.9863 1.57997 26.3374C1.80082 26.6884 2.08963 27.0227 2.45489 27.3487C2.82016 27.6747 3.29584 27.984 3.87347 28.2765L5.09667 28.8867C5.70827 29.2127 6.21793 29.4885 6.61717 29.7058C7.01641 29.9231 7.3307 30.1404 7.57704 30.3411C7.81489 30.5417 7.98478 30.759 8.08671 30.993C8.18864 31.2187 8.23961 31.5029 8.23961 31.8456C8.23961 32.3805 8.04424 32.8737 7.645 33.3083C7.24576 33.7513 6.65964 33.9686 5.90364 33.9686C4.82484 33.9686 4.06884 33.6844 3.63562 33.1244C3.2024 32.5644 2.99004 31.8372 2.99004 30.9345C1.86028 30.9345 1.07879 31.0933 0.645578 31.4193C0.212361 31.7453 0 32.2384 0 32.882C0 33.7931 0.467194 34.5203 1.39309 35.0469C2.31898 35.5734 3.59315 35.8409 5.20709 35.8409C6.21793 35.8409 7.15232 35.6905 8.01026 35.3896C8.8682 35.0887 9.59872 34.6958 10.2188 34.2027C10.8304 33.7095 11.3146 33.1495 11.6544 32.5143C11.9942 31.879 12.164 31.2187 12.164 30.5333C12.164 30.0736 12.1046 29.6306 11.9942 29.2043C11.8413 28.7947 11.6459 28.3768 11.3656 27.9756ZM41.1385 23.0776L39.3462 28.3601H42.9308L41.1385 23.0776ZM62.3492 19.2912C61.933 19.2912 61.6272 19.4249 61.4318 19.7091C61.2365 19.9849 61.177 20.2775 61.2534 20.5867L62.9014 20.7372V29.7309L56.0973 19.2912H50.9157C50.4145 19.2912 50.0832 19.4416 49.9049 19.7342C49.7265 20.0267 49.701 20.3193 49.8199 20.6118L51.4848 20.7622V33.8683L50.5759 34.1191L49.2848 33.8683L44.8762 21.2888C44.4939 20.2106 43.9163 19.5336 43.1433 19.2327C42.3703 18.9401 41.4189 18.9317 40.2892 19.2076L34.8867 33.8349L33.8928 34.1023C33.5276 34.2194 33.3152 34.4033 33.2558 34.654C33.1963 34.9048 33.2303 35.1472 33.3407 35.3728C33.7739 35.3394 34.1901 35.3227 34.5894 35.3227H35.6852C36.0674 35.3227 36.4412 35.3227 36.8149 35.331L36.9453 35.3339C37.2849 35.3414 37.6585 35.3497 38.0721 35.3645C38.4713 35.3812 38.7771 35.331 38.981 35.2057C39.1849 35.0803 39.3293 34.9382 39.4142 34.7794C39.5162 34.6039 39.5586 34.3949 39.5416 34.1692L37.452 33.8767L38.6752 30.2825H43.6105L44.8082 33.8516L43.585 34.1943C43.2537 34.2779 43.0583 34.445 42.9989 34.6958C42.9394 34.9465 42.9734 35.1722 43.0838 35.3645C43.551 35.331 44.0692 35.3143 44.6553 35.3143H46.4476C47.0252 35.3143 47.5519 35.3143 48.0191 35.3227C48.4863 35.331 49.8369 35.3227 49.8369 35.3227C50.1257 35.3227 50.6609 35.3143 51.1196 35.306C51.3866 35.3004 51.6498 35.3023 51.9092 35.3041H51.9096C52.0379 35.305 52.1653 35.306 52.2918 35.306C52.6741 35.306 53.0478 35.306 53.4046 35.3143L53.5086 35.3167C53.837 35.3244 54.1938 35.3326 54.5853 35.3478C54.9845 35.3645 55.2903 35.3143 55.4942 35.1889C55.6981 35.0636 55.8595 34.9215 55.9529 34.7627C56.0548 34.5871 56.1143 34.3782 56.1313 34.1525L53.9652 33.86V23.6125L60.8627 34.2946C61.194 34.7877 61.5083 35.1388 61.8056 35.3561C62.1029 35.5734 62.4681 35.6905 62.9014 35.6905C63.2666 35.6905 63.6404 35.657 64.0311 35.5902C64.4219 35.5233 64.8551 35.3895 65.3393 35.1722V20.7288L66.4605 20.5616C66.8258 20.4948 67.0551 20.3527 67.1571 20.1186C67.259 19.893 67.259 19.6171 67.1571 19.2912H62.3492ZM52.2323 5.13224C52.4022 4.42178 52.6485 3.84504 52.9543 3.4104C53.2602 2.97576 53.6254 2.6665 54.0501 2.47426C54.4749 2.28201 54.9336 2.19007 55.4432 2.19007C56.0548 2.19007 56.6155 2.3656 57.1166 2.72501C57.6178 3.08442 58.051 3.54414 58.4163 4.12087C58.7815 4.6976 59.0619 5.35792 59.2657 6.11018C59.4696 6.86244 59.5715 7.63978 59.5715 8.45055C59.5715 10.5234 59.2657 12.0113 58.6626 12.9223C58.0595 13.8334 57.1931 14.2848 56.0548 14.2848C55.5027 14.2848 54.9845 14.1259 54.4833 13.8C53.9907 13.474 53.5575 13.0226 53.1837 12.4375C52.8184 11.8524 52.5211 11.1587 52.3003 10.3646C52.0794 9.56223 51.969 8.70131 51.969 7.76516C51.969 6.72035 52.0539 5.84271 52.2323 5.13224ZM102.273 25.1177C100.802 22.9977 98.7703 21.2838 96.7723 19.5986C93.8546 17.1378 91.0098 14.7384 90.0922 11.2259C88.7586 6.14397 91.5617 4.30511 93.1332 4.39705C94.3205 4.46932 95.0272 5.27488 95.7107 6.05405L95.7108 6.0541C95.9759 6.35635 96.2376 6.65463 96.5225 6.90459C97.5503 7.8073 97.958 7.51476 98.1619 6.97982C98.3743 6.41144 97.6862 5.60903 97.1935 5.08245C96.514 4.36362 97.3379 4.20481 97.9495 4.65617C98.5157 5.07973 98.6746 5.59965 98.8097 6.04134C98.9198 6.40154 99.014 6.70971 99.3002 6.87116C100.133 7.34759 101.203 6.19412 100.77 4.59766C100.328 3.00119 98.6546 0.084091 93.7278 0.0339402C88.801 -0.0162105 86.0998 4.53079 86.0998 8.98585C86.0998 13.4493 88.7331 16.6673 90.8907 19.0076C91.77 19.9577 92.8005 21.0042 93.8567 22.0767L93.858 22.0781L93.8581 22.0782C95.4031 23.6471 97.0027 25.2715 98.2638 26.7309C102.596 31.7376 99.9967 35.315 99.9967 35.315C99.9967 35.315 107.208 32.2224 102.273 25.1177ZM85.0379 15.2792C85.8024 16.9843 86.9831 18.4638 89.7268 21.1218C90.461 21.8326 91.3512 22.6198 92.2806 23.4417L92.2813 23.4423L92.2815 23.4424L92.2816 23.4425L92.2817 23.4426C94.0513 25.0073 95.9631 26.6977 97.2104 28.2265C100.532 32.3305 99.1556 35.3312 99.1556 35.3312H81.1134C80.5528 35.2559 76.7388 34.2947 75.2863 32.063C75.0824 31.7537 75.4392 31.62 75.5921 31.6701C77.0191 32.272 78.1914 32.3806 79.0323 32.3054C80.2895 32.1884 79.8053 31.829 79.3466 31.6284C74.7001 29.5889 73.358 27.1649 73.0862 26.6384C72.8399 26.1536 72.8399 25.8276 73.2051 25.9112C74.0206 26.2873 74.7851 26.5464 75.3202 26.6049C75.8894 26.6634 76.2037 26.513 75.8129 26.2789C74.7171 25.6186 73.3241 24.5822 72.1773 23.0024C71.8545 22.5176 71.6252 22.0579 71.5232 21.6651C71.4723 21.4645 71.4468 21.2973 71.4468 21.1719C71.4468 20.9964 71.6591 20.9295 71.8715 21.0633C72.8569 21.6985 73.8082 22.1833 74.4623 22.317C75.0144 22.434 75.3457 22.317 74.9805 22.0412C74.1225 21.3976 73.5534 20.4364 72.8144 19.1074C72.3217 18.1044 72.1433 17.1097 72.0924 16.3658C72.0414 15.6971 72.1603 15.321 72.4661 15.6303C74.8106 17.9874 77.1126 20.0268 82.0563 21.5397C82.4726 21.6734 82.6509 21.4895 82.4641 21.2388C81.6996 20.194 81.3343 18.7647 81.4362 17.4942C81.5042 16.6249 81.8185 16.1568 82.0224 16.6166C82.3027 17.2602 83.4919 19.1074 84.146 19.542C84.4178 19.7176 84.6981 19.6507 84.5197 19.2746C84.044 18.2632 83.4409 16.5581 83.7297 14.4852C83.9582 12.8453 84.4366 13.9413 84.7905 14.7521L84.7906 14.7523C84.884 14.9664 84.9687 15.1605 85.0379 15.2792ZM14.1857 1.90576V14.527L13.1579 14.8363C12.8861 14.9115 12.6992 15.062 12.5972 15.2877C12.4953 15.5133 12.5208 15.7474 12.6822 15.9981H24.1837L25.3559 11.8189C24.9737 11.5932 24.6169 11.5431 24.3026 11.6684C23.9798 11.7855 23.7335 12.0195 23.5551 12.3706L22.6207 14.2011L18.399 14.084V9.07732L20.9388 9.15255L20.8708 10.6487C21.2701 10.7407 21.6353 10.6989 21.9751 10.5066C22.3149 10.3144 22.4933 9.97168 22.5273 9.46181L22.6971 5.85931C22.1365 5.75066 21.7458 5.77573 21.5334 5.9429C21.321 6.11007 21.1512 6.44441 21.0407 6.95427L18.399 7.0295V2.04786L22.0686 2.12308L22.5273 4.47181C23.0369 4.52196 23.4447 4.43002 23.742 4.19598C24.0393 3.9703 24.1412 3.54402 24.0647 2.9255L23.7505 0.409601H13.9054C13.3448 0.409601 12.9795 0.551695 12.8096 0.835882C12.6397 1.12007 12.6057 1.45441 12.6992 1.83054L14.1857 1.90576ZM26.4346 15.948C26.1543 15.948 25.8145 15.9648 25.4068 15.9982C25.2794 15.7307 25.2709 15.4967 25.3983 15.2877C25.5087 15.0871 25.6871 14.945 25.9419 14.8614L26.9953 14.5271L28.7791 1.90584L27.369 1.7136C27.2416 1.36254 27.2756 1.05328 27.4709 0.785808C27.6663 0.518337 28.0146 0.384602 28.5158 0.384602H33.468L36.543 10.4482L39.2867 0.384602H45.3433C45.4282 0.71894 45.4112 1.01149 45.3008 1.25388C45.1904 1.49628 44.978 1.63837 44.6637 1.68852L43.7463 1.83061L45.5981 14.5438L47.2205 14.828C47.2205 15.6221 46.7279 16.0066 45.7425 15.9898C45.3178 15.9731 44.8761 15.9648 44.4259 15.9564C43.9672 15.948 43.466 15.948 42.9223 15.948H41.3254C40.7732 15.948 40.2976 15.9648 39.8898 15.9982C39.7794 15.7892 39.7454 15.5636 39.8049 15.3212C39.8558 15.0788 40.0427 14.9116 40.357 14.8364L41.5293 14.5271L40.1192 4.02053L36.7299 15.8979H34.0287L30.4185 4.01217L29.1019 14.5188L31.0046 14.8531C30.9876 15.0788 30.9282 15.271 30.8178 15.4465C30.7243 15.5886 30.5799 15.7224 30.376 15.8394C30.1722 15.9564 29.8834 16.0066 29.5096 15.9898C29.1428 15.9754 28.8204 15.9672 28.5314 15.9598C28.4857 15.9587 28.4409 15.9575 28.3968 15.9564C28.0741 15.948 27.7343 15.948 27.3775 15.948H26.4346Z" fill="currentColor"></path><path fill-rule="evenodd" clip-rule="evenodd" d="M8.48331 47.8011H6.43093L5.17802 41.3496L3.88931 47.8011H1.89659L0.405029 39.7104H1.96818L3.01824 46.5717L4.36661 39.7104H6.03716L7.36166 46.5717L8.50718 39.7104H9.99874L8.48331 47.8011ZM15.7739 46.1618C15.7739 46.6653 15.941 46.8409 16.2512 46.958L15.9291 47.9532C15.237 47.8947 14.7835 47.6488 14.533 47.0516C14.0915 47.7073 13.3994 47.9766 12.6476 47.9766C11.3828 47.9766 10.6072 47.1921 10.6072 46.0681C10.6072 44.7216 11.6453 43.9957 13.4829 43.9957H14.2704V43.6444C14.2704 42.8365 13.9005 42.5672 13.0891 42.5672C12.6596 42.5672 12.051 42.6843 11.4186 42.8951L11.0606 41.8764C11.8362 41.5837 12.6357 41.4315 13.3516 41.4315C15.0341 41.4315 15.7739 42.1925 15.7739 43.5625V46.1618ZM13.0534 46.8876C13.5903 46.8876 13.9841 46.6183 14.2705 46.1265V44.8737H13.6381C12.6477 44.8737 12.1584 45.2249 12.1584 45.9509C12.1584 46.548 12.4687 46.8876 13.0534 46.8876ZM19.6163 41.4315C20.5232 41.4315 21.263 41.7125 21.8596 42.1691L21.263 43.0707C20.738 42.7194 20.2368 42.5438 19.7118 42.5438C19.0674 42.5438 18.7214 42.7897 18.7214 43.1644C18.7214 43.5742 18.972 43.7615 20.0459 44.0542C21.3346 44.3938 22.0625 44.909 22.0625 46.0096C22.0625 47.2975 20.8454 47.9766 19.4015 47.9766C18.3157 47.9766 17.4685 47.6137 16.8838 47.0985L17.6594 46.2437C18.1367 46.6184 18.7214 46.8643 19.3538 46.8643C20.0459 46.8643 20.4874 46.5716 20.4874 46.1384C20.4874 45.5998 20.2368 45.4358 19.0555 45.108C17.7549 44.7567 17.1821 44.1479 17.1821 43.2346C17.1821 42.2043 18.1486 41.4315 19.6163 41.4315ZM31.3101 41.0567H28.5776L28.2674 43.2111H30.6539L30.4629 44.5811H28.0764L27.6111 47.8009H25.6899L26.8474 39.6868H31.7039L31.3101 41.0567ZM35.6298 41.4082C35.8803 41.4082 36.0593 41.4433 36.2622 41.5018L35.7252 43.2816C35.5343 43.2347 35.3911 43.1996 35.2002 43.1996C34.4127 43.1996 33.9831 43.9372 33.637 44.9208L33.2194 47.8011H31.3699L32.2529 41.5838H33.8638L33.8399 42.743C34.2695 41.8882 34.9735 41.4082 35.6298 41.4082ZM39.6987 41.3846C40.534 41.3846 41.4289 41.572 42.3 42.0403L41.6915 46.0212C41.6795 46.1149 41.6676 46.2086 41.6676 46.2788C41.6676 46.5716 41.7869 46.6886 42.0017 46.7706L41.4767 47.9649C40.7727 47.9063 40.188 47.6019 40.009 46.9345C39.5675 47.5551 38.9589 48 38.1356 48C36.7633 48 36.0593 47.0282 36.0593 45.5295C36.0593 43.7498 37.0139 41.3846 39.6987 41.3846ZM39.6508 42.6961C38.4098 42.6961 37.9802 44.3119 37.9802 45.5179C37.9802 46.396 38.2905 46.6419 38.7081 46.6419C39.1615 46.6419 39.5434 46.3141 39.9014 45.7755L40.3548 42.8132C40.1161 42.7312 39.9252 42.6961 39.6508 42.6961ZM48.1231 47.8009H46.5242L46.56 46.876C46.023 47.5551 45.3667 48 44.5553 48C43.374 48 42.8848 47.2272 43.0518 46.0329L43.6962 41.5836H45.5457L44.961 45.7285C44.8775 46.3608 45.0326 46.5247 45.3787 46.5247C45.8202 46.5247 46.2497 46.0681 46.5958 45.5178L47.1566 41.5836H49.0061L48.1231 47.8009ZM55.5449 43.0824C55.5449 44.827 53.4687 45.3421 51.476 45.5412C51.5237 46.3725 51.9891 46.6418 52.6096 46.6418C53.1465 46.6418 53.6357 46.4545 54.2204 46.0681L54.8887 47.1687C54.1966 47.6605 53.3494 48 52.3709 48C50.5214 48 49.6145 46.9462 49.6145 45.3656C49.6145 43.6795 50.5452 41.3846 53.2062 41.3846C54.7455 41.3846 55.5449 42.1457 55.5449 43.0824ZM51.5596 44.4173C53.1466 44.3002 53.6716 43.7148 53.6716 43.1879C53.6716 42.9069 53.5284 42.6141 53.0273 42.6141C52.1443 42.6141 51.7266 43.5274 51.5596 44.4173ZM60.5447 41.3846C61.5948 41.3846 62.1556 42.0988 61.9885 43.2814L61.3442 47.801H59.4827L60.1032 43.6912C60.2106 43.0355 60.0078 42.895 59.6856 42.895C59.256 42.895 58.7548 43.5039 58.3014 44.382L57.8122 47.801H55.9626L56.8456 41.5837H58.4565L58.4207 42.6726C58.9577 41.8998 59.793 41.3846 60.5447 41.3846ZM72.6921 47.8008H70.7829L69.8283 42.9417L68.8498 47.8008H66.9764L65.5803 41.607H67.1077L67.9907 46.7002L69.0885 41.607H70.6516L71.654 46.7002L72.5966 41.607H74.0643L72.6921 47.8008ZM77.6916 41.4315C79.5531 41.4315 80.6509 42.6726 80.6509 44.6982C80.6509 46.6536 79.5411 47.9766 77.6797 47.9766C75.8182 47.9766 74.7085 46.7355 74.7085 44.6982C74.7085 42.7546 75.8182 41.4315 77.6916 41.4315ZM77.6916 42.5673C76.7966 42.5673 76.3193 43.2347 76.3193 44.6982C76.3193 46.1852 76.7847 46.8409 77.6796 46.8409C78.5746 46.8409 79.0399 46.1735 79.0399 44.6982C79.0399 43.2229 78.5746 42.5673 77.6916 42.5673ZM83.5506 46.2906C83.5506 46.6301 83.658 46.7706 83.9086 46.7706C84.0279 46.7706 84.1591 46.7472 84.2665 46.7121L84.5887 47.7659C84.2785 47.8946 83.8966 47.9766 83.5029 47.9766C82.5602 47.9766 82.0232 47.4263 82.0232 46.3959V39.1249L83.5506 38.9609V46.2906ZM87.0705 46.2906C87.0705 46.6301 87.1779 46.7706 87.4285 46.7706C87.5478 46.7706 87.6791 46.7472 87.7865 46.7121L88.1086 47.7659C87.7984 47.8946 87.4165 47.9766 87.0228 47.9766C86.0801 47.9766 85.5432 47.4263 85.5432 46.3959V39.1249L87.0705 38.9609V46.2906ZM94.3017 44.5577C94.3017 44.7567 94.2778 45.0026 94.2659 45.1666H90.3043C90.4117 46.4311 91.0203 46.8409 91.8555 46.8409C92.4164 46.8409 92.8817 46.6653 93.4306 46.2906L94.063 47.1453C93.4425 47.6371 92.6789 47.9766 91.7243 47.9766C89.7673 47.9766 88.7173 46.7004 88.7173 44.745C88.7173 42.8599 89.7315 41.4315 91.5214 41.4315C93.2874 41.4315 94.3017 42.6024 94.3017 44.5577ZM92.7862 44.1946V44.1243C92.7862 43.1057 92.4162 42.4968 91.5571 42.4968C90.8412 42.4968 90.3877 42.9652 90.3042 44.1946H92.7862ZM99.0747 41.4315C100.208 41.4315 100.865 42.134 100.865 43.3166V47.801H99.3372V43.5508C99.3372 42.778 99.0389 42.5555 98.5616 42.5555C98.0127 42.5555 97.607 42.9185 97.2371 43.4922V47.801H95.7097V41.6071H97.0342L97.1535 42.415C97.6428 41.7945 98.2752 41.4315 99.0747 41.4315Z" fill="currentColor"></path></svg>
